#!OML:ASF F:\VICON\USERDATA\INSTALL\rory3\rory3.ASF
:FULLY-SPECIFIED
:DEGREES
206
root 2.42896 16.5049 13.7729 24.7675 0.497971 3.09775
lowerback -16.5748 0.680974 -1.51974
upperback -8.50382 1.16147 -1.73982
thorax 0.248503 0.597645 -0.776579
lowerneck -17.6154 -1.23884 -2.41102
upperneck 33.5838 -1.4748 1.35516
head 14.5568 -0.741532 0.722924
rclavicle -8.86077e-015 6.4605e-015
rhumerus -42.3739 -9.94517 -70.3417
rradius 19.6635
rwrist -0.0342295
rhand 2.09485 10.1467
rfingers 7.12502
rthumb 27.5953 -17.85
lclavicle -8.86077e-015 6.4605e-015
lhumerus -58.1572 21.2295 54.5655
lradius 39.0315
lwrist 3.70344
lhand 5.41446 19.1016
lfingers 7.12502
lthumb 30.7652 46.5475
rfemur -51.6768 4.46314 27.7032
rtibia 45.224
rfoot -43.7932 -31.6431
rtoes 42.6614
lfemur -19.0626 6.74059 -31.6923
ltibia 39.3222
lfoot -14.3739 6.93659
ltoes -25.4843
207
root 2.42512 16.4982 13.8047 24.8262 0.664094 2.62328
lowerback -16.7814 0.762429 -1.01234
upperback -8.40625 1.19865 -1.57451
thorax 0.46795 0.603742 -0.879385
lowerneck -17.8152 -1.22249 -2.32406
upperneck 33.5846 -1.4266 1.22159
head 14.5992 -0.72764 0.660634
rclavicle 5.15712e-015 -8.29926e-015
rhumerus -41.5234 -9.53749 -70.5459
rradius 20.0174
rwrist -0.54287
rhand 2.19247 9.94403
rfingers 7.12502
rthumb 27.6886 -18.0377
lclavicle 5.15712e-015 -8.29926e-015
lhumerus -57.6928 21.1862 54.8271
lradius 39.4302
lwrist 3.6747
lhand 5.40019 19.1924
lfingers 7.12502
lthumb 30.7516 46.6409
rfemur -51.5933 4.26848 28.4245
rtibia 45.1809
rfoot -43.4082 -31.917
rtoes 41.9064
lfemur -19.5556 6.86311 -31.1039
ltibia 40.2651
lfoot -14.5679 6.39909
ltoes -22.5348
208
root 2.41065 16.4887 13.8273 24.7202 0.350955 2.61893
lowerback -16.8442 0.850593 -1.27974
upperback -8.22794 1.35687 -1.52953
thorax 0.684221 0.690424 -0.651596
lowerneck -18.1467 -1.21711 -2.21537
upperneck 33.7496 -1.39433 1.07176
head 14.7474 -0.719841 0.585226
rclavicle -1.58347e-014 3.77691e-015
rhumerus -40.6162 -9.35676 -70.6423
rradius 20.4104
rwrist -0.677554
rhand 2.22994 9.08697
rfingers 7.12502
rthumb 27.7245 -18.889
lclavicle -1.58347e-014 3.77691e-015
lhumerus -57.0558 21.2195 55.0624
lradius 39.6875
lwrist 3.72878
lhand 5.34242 19.6656
lfingers 7.12502
lthumb 30.6965 47.1245
rfemur -51.4242 5.0109 28.1799
rtibia 45.106
rfoot -43.6558 -32.4592
rtoes 41.8222
lfemur -19.9635 7.20069 -31.0864
ltibia 41.1577
lfoot -14.5348 6.02568
ltoes -18.6911
209
root 2.41723 16.4918 13.8914 24.7556 0.361798 2.30014
lowerback -17.3878 0.956451 -0.852155
upperback -8.22774 1.43955 -1.45451
thorax 0.975948 0.720572 -0.791167
lowerneck -17.953 -1.17865 -2.17908
upperneck 33.951 -1.36185 1.08902
head 14.7953 -0.699592 0.593477
rclavicle 1.09214e-014 -2.83268e-015
rhumerus -40.114 -9.38263 -70.4641
rradius 20.4309
rwrist -0.190061
rhand 2.25058 8.83181
rfingers 7.12502
rthumb 27.7442 -19.141
lclavicle 1.09214e-014 -2.83268e-015
lhumerus -56.8815 21.2755 54.8102
lradius 39.7458
lwrist 3.45232
lhand 5.38022 19.4977
lfingers 7.12502
lthumb 30.7326 46.9498
rfemur -51.1713 3.84678 29.108
rtibia 45.0188
rfoot -42.3457 -32.1632
rtoes 40.8643
lfemur -20.2756 7.53556 -30.709
ltibia 41.9201
lfoot -14.3396 5.93201
ltoes -16.2056
210
root 2.41802 16.4864 13.9359 24.8064 0.419903 2.18029
lowerback -17.4783 0.992035 -0.667745
upperback -8.52582 1.45389 -1.41472
thorax 0.708699 0.724239 -0.853444
lowerneck -17.1581 -1.1353 -2.19266
upperneck 33.9757 -1.33303 1.15033
head 14.6249 -0.682757 0.629187
rclavicle 5.92996e-015 2.47238e-015
rhumerus -40.1495 -8.92956 -70.4484
rradius 20.7945
rwrist -0.211343
rhand 2.18087 8.93079
rfingers 7.12502
rthumb 27.6776 -19.0528
lclavicle 5.92996e-015 2.47238e-015
lhumerus -57.0878 21.0302 54.4728
lradius 39.9386
lwrist 3.14733
lhand 5.5427 19.0478
lfingers 7.12502
lthumb 30.8875 46.4707
rfemur -51.0312 3.14198 29.6287
rtibia 44.9903
rfoot -41.765 -31.883
rtoes 40.4745
lfemur -20.5648 7.93527 -30.5937
ltibia 42.5647
lfoot -14.1951 6.03615
ltoes -15.0608
211
root 2.41414 16.4798 13.9642 24.8358 0.457105 1.9148
lowerback -17.4387 1.04376 -0.385071
upperback -8.7037 1.47316 -1.30101
thorax 0.50273 0.728174 -0.893267
lowerneck -16.8247 -1.06297 -2.10708
upperneck 34.1016 -1.1877 0.948068
head 14.6013 -0.639096 0.557808
rclavicle 1.22883e-014 -7.55537e-015
rhumerus -39.8446 -8.465 -70.4853
rradius 21.2163
rwrist -0.399224
rhand 2.1286 8.87854
rfingers 7.12502
rthumb 27.6276 -19.113
lclavicle 1.22883e-014 -7.55537e-015
lhumerus -56.9694 21.1005 54.2725
lradius 39.9301
lwrist 2.71998
lhand 5.4422 18.7781
lfingers 7.12502
lthumb 30.7917 46.2191
rfemur -50.9212 2.97035 30.1075
rtibia 44.9663
rfoot -41.7259 -31.655
rtoes 40.511
lfemur -20.9131 8.35738 -30.3285
ltibia 43.1641
lfoot -14.1543 6.06504
ltoes -14.6243
212
root 2.41266 16.4824 13.9937 24.7959 0.326519 1.79151
lowerback -17.4951 1.14151 -0.278843
upperback -8.73808 1.58408 -1.24908
thorax 0.497985 0.781597 -0.878796
lowerneck -16.7259 -1.04272 -2.00854
upperneck 34.3037 -1.10993 0.722201
head 14.6682 -0.625154 0.462022
rclavicle -7.97041e-015 6.83322e-015
rhumerus -39.3849 -8.27809 -70.3834
rradius 21.4387
rwrist -0.395467
rhand 1.96246 8.9111
rfingers 7.12502
rthumb 27.4687 -19.1058
lclavicle -7.97041e-015 6.83322e-015
lhumerus -56.6931 21.2453 54.0897
lradius 39.9074
lwrist 2.37278
lhand 5.27004 18.1287
lfingers 7.12502
lthumb 30.6275 45.6005
rfemur -50.7356 3.09122 30.2227
rtibia 44.9868
rfoot -41.8438 -31.537
rtoes 40.3803
lfemur -21.2268 8.72805 -30.2078
ltibia 43.7482
lfoot -14.2403 6.08414
ltoes -14.6063
213
root 2.41293 16.4877 14.0266 24.7127 0.00359986 1.95589
lowerback -17.7196 1.21952 -0.476448
upperback -8.62105 1.72068 -1.3006
thorax 0.736609 0.854284 -0.79105
lowerneck -16.6776 -1.02353 -1.92267
upperneck 34.317 -1.07331 0.620047
head 14.6612 -0.612485 0.411425
rclavicle -2.07097e-014 7.70291e-016
rhumerus -38.7513 -8.08773 -70.4328
rradius 21.8085
rwrist -0.809629
rhand 1.9394 8.0572
rfingers 7.12502
rthumb 27.4466 -19.9632
lclavicle -2.07097e-014 7.70291e-016
lhumerus -56.3186 21.6239 53.8729
lradius 40.0502
lwrist 1.92936
lhand 5.01215 17.9657
lfingers 7.12502
lthumb 30.3816 45.4832
rfemur -50.5812 3.21062 29.9689
rtibia 45.0902
rfoot -41.7353 -31.7767
rtoes 39.965
lfemur -21.1939 9.05731 -30.4135
ltibia 44.2335
lfoot -15.0129 5.26533
ltoes -9.39611
214
root 2.41353 16.4826 14.0596 24.7511 -0.254031 2.0004
lowerback -18.1183 1.33799 -0.534579
upperback -8.46514 1.89187 -1.33252
thorax 1.10967 0.940036 -0.749442
lowerneck -16.7559 -1.00904 -1.73995
upperneck 34.3021 -1.03352 0.410105
head 14.6687 -0.600379 0.299467
rclavicle -6.33665e-015 1.68222e-014
rhumerus -38.0568 -8.08971 -70.3782
rradius 22.0933
rwrist -1.14755
rhand 1.95498 7.29179
rfingers 7.12502
rthumb 27.4615 -20.7262
lclavicle -6.33665e-015 1.68222e-014
lhumerus -55.627 22.1402 53.7318
lradius 39.9045
lwrist 1.34295
lhand 4.63561 17.9872
lfingers 7.12502
lthumb 30.0223 45.5705
rfemur -50.5897 3.20352 29.948
rtibia 45.2426
rfoot -41.5713 -31.9217
rtoes 39.6034
lfemur -21.2031 9.67714 -30.6045
ltibia 44.6223
lfoot -15.7888 4.61802
ltoes -5.02776
215
root 2.41132 16.4707 14.092 24.8425 -0.395432 2.00914
lowerback -18.5313 1.41778 -0.583723
upperback -8.41664 2.00884 -1.31358
thorax 1.37265 0.999313 -0.669174
lowerneck -16.6403 -0.943248 -1.59837
upperneck 34.3532 -0.922956 0.245897
head 14.6622 -0.557177 0.226693
rclavicle -1.26477e-014 1.43125e-014
rhumerus -37.6638 -7.89211 -70.3324
rradius 22.4581
rwrist -1.59112
rhand 1.69911 7.31008
rfingers 7.12502
rthumb 27.2168 -20.7465
lclavicle -1.26477e-014 1.43125e-014
lhumerus -55.1838 22.6085 53.4891
lradius 39.6921
lwrist 0.638915
lhand 4.45052 17.3858
lfingers 7.12502
lthumb 29.8457 45.0009
rfemur -50.6745 2.91381 30.0978
rtibia 45.4422
rfoot -41.0564 -31.915
rtoes 39.132
lfemur -21.3873 10.673 -30.8568
ltibia 44.8989
lfoot -15.9009 5.4665
ltoes -9.44518
216
root 2.41011 16.4641 14.1233 24.8644 -0.384872 1.92155
lowerback -18.6418 1.49886 -0.476922
upperback -8.60669 2.09534 -1.28053
thorax 1.22918 1.041 -0.678853
lowerneck -16.0913 -0.929737 -1.37727
upperneck 34.479 -0.858019 -0.0976834
head 14.5905 -0.548626 0.0600051
rclavicle 4.62951e-015 -1.35174e-014
rhumerus -37.7034 -7.95481 -69.9983
rradius 22.7121
rwrist -1.73483
rhand 1.57211 7.44115
rfingers 7.12502
rthumb 27.0953 -20.6344
lclavicle 4.62951e-015 -1.35174e-014
lhumerus -55.1524 22.0948 53.6835
lradius 40.0826
lwrist 0.80078
lhand 4.19483 16.8473
lfingers 7.12502
lthumb 29.6017 44.5059
rfemur -50.6407 2.61289 30.3542
rtibia 45.5848
rfoot -40.6565 -31.9829
rtoes 38.3806
lfemur -21.5185 11.5803 -30.8949
ltibia 45.2223
lfoot -15.9474 6.57125
ltoes -14.0729
217
root 2.40256 16.4645 14.1567 24.7785 -0.501473 1.88863
lowerback -18.5674 1.57731 -0.530334
upperback -8.80482 2.2032 -1.26259
thorax 0.977166 1.09756 -0.615096
lowerneck -15.6444 -0.988654 -1.3364
upperneck 34.719 -0.917429 -0.228239
head 14.5987 -0.587104 -0.00921317
rclavicle -1.57677e-014 9.14409e-015
rhumerus -37.684 -8.36408 -69.4985
rradius 22.6951
rwrist -1.40289
rhand 1.21493 7.83727
rfingers 7.12502
rthumb 26.7535 -20.291
lclavicle -1.57677e-014 9.14409e-015
lhumerus -55.1355 21.5584 53.8809
lradius 40.5895
lwrist 1.40912
lhand 3.71841 17.0209
lfingers 7.12502
lthumb 29.1468 44.7593
rfemur -50.3937 2.80364 30.351
rtibia 45.6422
rfoot -40.9542 -31.9309
rtoes 38.4174
lfemur -21.5481 12.4572 -30.9444
ltibia 45.6555
lfoot -16.4116 7.07763
ltoes -16.0504
